<?xml version="1.0" encoding="UTF-8" standalone="no"?>
<!DOCTYPE svg PUBLIC "-//W3C//DTD SVG 1.1//EN"
 "http://www.w3.org/Graphics/SVG/1.1/DTD/svg11.dtd">
<!-- Generated by graphviz version 2.43.0 (0)
 -->
<!-- Pages: 1 -->
<svg width="532pt" height="1169pt"
 viewBox="0.00 0.00 531.50 1169.00" xmlns="http://www.w3.org/2000/svg" xmlns:xlink="http://www.w3.org/1999/xlink">
<g id="graph0" class="graph" transform="scale(1 1) rotate(0) translate(4 1165)">
<polygon fill="white" stroke="transparent" points="-4,4 -4,-1165 527.5,-1165 527.5,4 -4,4"/>
<!-- 7 -->
<g id="node1" class="node">
<title>7</title>
<path fill="none" stroke="black" d="M12,-400.5C12,-400.5 218,-400.5 218,-400.5 224,-400.5 230,-406.5 230,-412.5 230,-412.5 230,-447.5 230,-447.5 230,-453.5 224,-459.5 218,-459.5 218,-459.5 12,-459.5 12,-459.5 6,-459.5 0,-453.5 0,-447.5 0,-447.5 0,-412.5 0,-412.5 0,-406.5 6,-400.5 12,-400.5"/>
<text text-anchor="start" x="68" y="-445.6" font-family="monospace" font-size="8.00">0x401050</text>
<text text-anchor="start" x="109" y="-445.6" font-family="monospace" font-size="8.00">(0x401050)</text>
<polyline fill="none" stroke="black" points="0,-436.5 230,-436.5 "/>
<text text-anchor="start" x="11" y="-423.1" font-family="monospace" font-size="8.00">0x00401050: </text>
<text text-anchor="start" x="70" y="-423.1" font-family="monospace" font-size="8.00">endbr64</text>
<text text-anchor="start" x="11" y="-410.1" font-family="monospace" font-size="8.00">0x00401054: </text>
<text text-anchor="start" x="70" y="-410.1" font-family="monospace" font-size="8.00">bnd jmp</text>
<text text-anchor="start" x="106" y="-410.1" font-family="monospace" font-size="8.00">qword ptr [rip + 0x2f75]</text>
</g>
<!-- 8 -->
<g id="node10" class="node">
<title>8</title>
<path fill="#dddddd" stroke="black" d="M68.5,-327.5C68.5,-327.5 199.5,-327.5 199.5,-327.5 205.5,-327.5 211.5,-333.5 211.5,-339.5 211.5,-339.5 211.5,-351.5 211.5,-351.5 211.5,-357.5 205.5,-363.5 199.5,-363.5 199.5,-363.5 68.5,-363.5 68.5,-363.5 62.5,-363.5 56.5,-357.5 56.5,-351.5 56.5,-351.5 56.5,-339.5 56.5,-339.5 56.5,-333.5 62.5,-327.5 68.5,-327.5"/>
<text text-anchor="start" x="68" y="-343.1" font-family="monospace" font-size="8.00">0x500008</text>
<text text-anchor="start" x="109" y="-343.1" font-family="monospace" font-size="8.00">(0x500008)</text>
<text text-anchor="start" x="159" y="-344.1" font-family="monospace" font-weight="bold" font-size="8.00">puts</text>
<text text-anchor="start" x="182" y="-343.1" font-family="monospace" font-size="8.00">SIMP</text>
</g>
<!-- 7&#45;&gt;8 -->
<g id="edge12" class="edge">
<title>7&#45;&gt;8</title>
<path fill="none" stroke="blue" stroke-dasharray="5,2" d="M121.65,-400.15C123.62,-391.56 125.78,-382.18 127.74,-373.7"/>
<polygon fill="blue" stroke="blue" points="131.16,-374.44 129.99,-363.91 124.33,-372.87 131.16,-374.44"/>
</g>
<!-- 6 -->
<g id="node2" class="node">
<title>6</title>
<path fill="none" stroke="black" d="M117.5,-496.5C117.5,-496.5 296.5,-496.5 296.5,-496.5 302.5,-496.5 308.5,-502.5 308.5,-508.5 308.5,-508.5 308.5,-595.5 308.5,-595.5 308.5,-601.5 302.5,-607.5 296.5,-607.5 296.5,-607.5 117.5,-607.5 117.5,-607.5 111.5,-607.5 105.5,-601.5 105.5,-595.5 105.5,-595.5 105.5,-508.5 105.5,-508.5 105.5,-502.5 111.5,-496.5 117.5,-496.5"/>
<text text-anchor="start" x="137" y="-593.6" font-family="monospace" font-size="8.00">0x401149</text>
<text text-anchor="start" x="178" y="-593.6" font-family="monospace" font-size="8.00">(0x401149)</text>
<text text-anchor="start" x="228" y="-594.6" font-family="monospace" font-weight="bold" font-size="8.00">HelloWorld</text>
<polyline fill="none" stroke="black" points="105.5,-584.5 308.5,-584.5 "/>
<text text-anchor="start" x="117" y="-571.1" font-family="monospace" font-size="8.00">0x00401149: </text>
<text text-anchor="start" x="176" y="-571.1" font-family="monospace" font-size="8.00">endbr64</text>
<text text-anchor="start" x="117" y="-558.1" font-family="monospace" font-size="8.00">0x0040114d: </text>
<text text-anchor="start" x="176" y="-558.1" font-family="monospace" font-size="8.00">push</text>
<text text-anchor="start" x="212" y="-558.1" font-family="monospace" font-size="8.00">rbp</text>
<text text-anchor="start" x="117" y="-545.1" font-family="monospace" font-size="8.00">0x0040114e: </text>
<text text-anchor="start" x="176" y="-545.1" font-family="monospace" font-size="8.00">mov</text>
<text text-anchor="start" x="212" y="-545.1" font-family="monospace" font-size="8.00">rbp, rsp</text>
<text text-anchor="start" x="117" y="-532.1" font-family="monospace" font-size="8.00">0x00401151: </text>
<text text-anchor="start" x="176" y="-532.1" font-family="monospace" font-size="8.00">lea</text>
<text text-anchor="start" x="212" y="-532.1" font-family="monospace" font-size="8.00">rax, [rip + 0xeac]</text>
<text text-anchor="start" x="117" y="-519.1" font-family="monospace" font-size="8.00">0x00401158: </text>
<text text-anchor="start" x="176" y="-519.1" font-family="monospace" font-size="8.00">mov</text>
<text text-anchor="start" x="212" y="-519.1" font-family="monospace" font-size="8.00">rdi, rax</text>
<text text-anchor="start" x="117" y="-506.1" font-family="monospace" font-size="8.00">0x0040115b: </text>
<text text-anchor="start" x="176" y="-506.1" font-family="monospace" font-size="8.00">call</text>
<text text-anchor="start" x="212" y="-506.1" font-family="monospace" font-size="8.00">0x401050</text>
</g>
<!-- 6&#45;&gt;7 -->
<g id="edge10" class="edge">
<title>6&#45;&gt;7</title>
<path fill="none" stroke="black" d="M165.04,-496.27C157.64,-486.61 150.09,-476.77 143.19,-467.76"/>
<polygon fill="black" stroke="black" points="145.9,-465.56 137.04,-459.75 140.35,-469.82 145.9,-465.56"/>
</g>
<!-- 9 -->
<g id="node3" class="node">
<title>9</title>
<path fill="none" stroke="black" d="M136.5,-218.5C136.5,-218.5 297.5,-218.5 297.5,-218.5 303.5,-218.5 309.5,-224.5 309.5,-230.5 309.5,-230.5 309.5,-278.5 309.5,-278.5 309.5,-284.5 303.5,-290.5 297.5,-290.5 297.5,-290.5 136.5,-290.5 136.5,-290.5 130.5,-290.5 124.5,-284.5 124.5,-278.5 124.5,-278.5 124.5,-230.5 124.5,-230.5 124.5,-224.5 130.5,-218.5 136.5,-218.5"/>
<text text-anchor="start" x="136" y="-276.6" font-family="monospace" font-size="8.00">0x401160</text>
<text text-anchor="start" x="177" y="-276.6" font-family="monospace" font-size="8.00">(0x401149)</text>
<text text-anchor="start" x="227" y="-277.6" font-family="monospace" font-weight="bold" font-size="8.00">HelloWorld+0x17</text>
<polyline fill="none" stroke="black" points="124.5,-267.5 309.5,-267.5 "/>
<text text-anchor="start" x="170" y="-253.6" font-family="monospace" font-size="8.00">0x00401160: </text>
<text text-anchor="start" x="229" y="-253.6" font-family="monospace" font-size="8.00">nop</text>
<text text-anchor="start" x="170" y="-240.6" font-family="monospace" font-size="8.00">0x00401161: </text>
<text text-anchor="start" x="229" y="-240.6" font-family="monospace" font-size="8.00">pop</text>
<text text-anchor="start" x="247" y="-240.6" font-family="monospace" font-size="8.00">rbp</text>
<text text-anchor="start" x="170" y="-227.6" font-family="monospace" font-size="8.00">0x00401162: </text>
<text text-anchor="start" x="229" y="-227.6" font-family="monospace" font-size="8.00">ret</text>
</g>
<!-- 6&#45;&gt;9 -->
<g id="edge11" class="edge">
<title>6&#45;&gt;9</title>
<path fill="none" stroke="gray" stroke-dasharray="1,5" d="M229.52,-496.45C233.46,-484.63 236.94,-472.05 239,-460 248.3,-405.53 238.32,-342.19 228.97,-300.61"/>
<polygon fill="gray" stroke="gray" points="232.36,-299.73 226.68,-290.78 225.54,-301.32 232.36,-299.73"/>
</g>
<!-- 3 -->
<g id="node7" class="node">
<title>3</title>
<path fill="none" stroke="black" d="M277.5,-109.5C277.5,-109.5 434.5,-109.5 434.5,-109.5 440.5,-109.5 446.5,-115.5 446.5,-121.5 446.5,-121.5 446.5,-169.5 446.5,-169.5 446.5,-175.5 440.5,-181.5 434.5,-181.5 434.5,-181.5 277.5,-181.5 277.5,-181.5 271.5,-181.5 265.5,-175.5 265.5,-169.5 265.5,-169.5 265.5,-121.5 265.5,-121.5 265.5,-115.5 271.5,-109.5 277.5,-109.5"/>
<text text-anchor="start" x="277" y="-167.6" font-family="monospace" font-size="8.00">0x401188</text>
<text text-anchor="start" x="318" y="-167.6" font-family="monospace" font-size="8.00">(0x401163)</text>
<text text-anchor="start" x="368" y="-168.6" font-family="monospace" font-weight="bold" font-size="8.00">firstCall+0x25</text>
<polyline fill="none" stroke="black" points="265.5,-158.5 446.5,-158.5 "/>
<text text-anchor="start" x="311" y="-144.6" font-family="monospace" font-size="8.00">0x00401188: </text>
<text text-anchor="start" x="370" y="-144.6" font-family="monospace" font-size="8.00">nop</text>
<text text-anchor="start" x="311" y="-131.6" font-family="monospace" font-size="8.00">0x00401189: </text>
<text text-anchor="start" x="370" y="-131.6" font-family="monospace" font-size="8.00">leave</text>
<text text-anchor="start" x="311" y="-118.6" font-family="monospace" font-size="8.00">0x0040118a: </text>
<text text-anchor="start" x="370" y="-118.6" font-family="monospace" font-size="8.00">ret</text>
</g>
<!-- 9&#45;&gt;3 -->
<g id="edge14" class="edge">
<title>9&#45;&gt;3</title>
<path fill="none" stroke="gray" d="M262.51,-218.46C275.23,-208.67 289.18,-197.94 302.32,-187.82"/>
<polygon fill="gray" stroke="gray" points="304.59,-190.49 310.38,-181.61 300.32,-184.94 304.59,-190.49"/>
</g>
<!-- 1 -->
<g id="node4" class="node">
<title>1</title>
<path fill="none" stroke="black" d="M225,-836.5C225,-836.5 435,-836.5 435,-836.5 441,-836.5 447,-842.5 447,-848.5 447,-848.5 447,-948.5 447,-948.5 447,-954.5 441,-960.5 435,-960.5 435,-960.5 225,-960.5 225,-960.5 219,-960.5 213,-954.5 213,-948.5 213,-948.5 213,-848.5 213,-848.5 213,-842.5 219,-836.5 225,-836.5"/>
<text text-anchor="start" x="262" y="-946.6" font-family="monospace" font-size="8.00">0x401163</text>
<text text-anchor="start" x="303" y="-946.6" font-family="monospace" font-size="8.00">(0x401163)</text>
<text text-anchor="start" x="353" y="-947.6" font-family="monospace" font-weight="bold" font-size="8.00">firstCall</text>
<polyline fill="none" stroke="black" points="213,-937.5 447,-937.5 "/>
<text text-anchor="start" x="224" y="-923.6" font-family="monospace" font-size="8.00">0x00401163: </text>
<text text-anchor="start" x="283" y="-923.6" font-family="monospace" font-size="8.00">endbr64</text>
<text text-anchor="start" x="224" y="-910.6" font-family="monospace" font-size="8.00">0x00401167: </text>
<text text-anchor="start" x="283" y="-910.6" font-family="monospace" font-size="8.00">push</text>
<text text-anchor="start" x="319" y="-910.6" font-family="monospace" font-size="8.00">rbp</text>
<text text-anchor="start" x="224" y="-897.6" font-family="monospace" font-size="8.00">0x00401168: </text>
<text text-anchor="start" x="283" y="-897.6" font-family="monospace" font-size="8.00">mov</text>
<text text-anchor="start" x="319" y="-897.6" font-family="monospace" font-size="8.00">rbp, rsp</text>
<text text-anchor="start" x="224" y="-884.6" font-family="monospace" font-size="8.00">0x0040116b: </text>
<text text-anchor="start" x="283" y="-884.6" font-family="monospace" font-size="8.00">sub</text>
<text text-anchor="start" x="319" y="-884.6" font-family="monospace" font-size="8.00">rsp, 0x10</text>
<text text-anchor="start" x="224" y="-871.6" font-family="monospace" font-size="8.00">0x0040116f: </text>
<text text-anchor="start" x="283" y="-871.6" font-family="monospace" font-size="8.00">mov</text>
<text text-anchor="start" x="319" y="-871.6" font-family="monospace" font-size="8.00">dword ptr [rbp &#45; 4], edi</text>
<text text-anchor="start" x="224" y="-858.6" font-family="monospace" font-size="8.00">0x00401172: </text>
<text text-anchor="start" x="283" y="-858.6" font-family="monospace" font-size="8.00">cmp</text>
<text text-anchor="start" x="319" y="-858.6" font-family="monospace" font-size="8.00">dword ptr [rbp &#45; 4], 0x32</text>
<text text-anchor="start" x="224" y="-845.6" font-family="monospace" font-size="8.00">0x00401176: </text>
<text text-anchor="start" x="283" y="-845.6" font-family="monospace" font-size="8.00">jbe</text>
<text text-anchor="start" x="319" y="-845.6" font-family="monospace" font-size="8.00">0x401188</text>
</g>
<!-- 2 -->
<g id="node5" class="node">
<title>2</title>
<path fill="none" stroke="black" d="M181,-740.5C181,-740.5 373,-740.5 373,-740.5 379,-740.5 385,-746.5 385,-752.5 385,-752.5 385,-787.5 385,-787.5 385,-793.5 379,-799.5 373,-799.5 373,-799.5 181,-799.5 181,-799.5 175,-799.5 169,-793.5 169,-787.5 169,-787.5 169,-752.5 169,-752.5 169,-746.5 175,-740.5 181,-740.5"/>
<text text-anchor="start" x="198" y="-785.6" font-family="monospace" font-size="8.00">0x401178</text>
<text text-anchor="start" x="239" y="-785.6" font-family="monospace" font-size="8.00">(0x401163)</text>
<text text-anchor="start" x="289" y="-786.6" font-family="monospace" font-weight="bold" font-size="8.00">firstCall+0x15</text>
<polyline fill="none" stroke="black" points="169,-776.5 385,-776.5 "/>
<text text-anchor="start" x="180" y="-763.1" font-family="monospace" font-size="8.00">0x00401178: </text>
<text text-anchor="start" x="239" y="-763.1" font-family="monospace" font-size="8.00">cmp</text>
<text text-anchor="start" x="257" y="-763.1" font-family="monospace" font-size="8.00">dword ptr [rbp &#45; 4], 0x63</text>
<text text-anchor="start" x="180" y="-750.1" font-family="monospace" font-size="8.00">0x0040117c: </text>
<text text-anchor="start" x="239" y="-750.1" font-family="monospace" font-size="8.00">ja</text>
<text text-anchor="start" x="257" y="-750.1" font-family="monospace" font-size="8.00">0x401188</text>
</g>
<!-- 1&#45;&gt;2 -->
<g id="edge3" class="edge">
<title>1&#45;&gt;2</title>
<path fill="none" stroke="red" d="M304.43,-836.47C300.51,-827.11 296.56,-817.68 292.92,-809.01"/>
<polygon fill="red" stroke="red" points="296.07,-807.45 288.97,-799.58 289.61,-810.16 296.07,-807.45"/>
</g>
<!-- 1&#45;&gt;3 -->
<g id="edge4" class="edge">
<title>1&#45;&gt;3</title>
<path fill="none" stroke="green" d="M375.69,-836.46C382.75,-824.81 389.26,-812.38 394,-800 414.1,-747.53 413,-731.19 413,-675 413,-675 413,-675 413,-344.5 413,-290.25 393,-230.8 376.69,-191.34"/>
<polygon fill="green" stroke="green" points="379.76,-189.6 372.64,-181.75 373.31,-192.32 379.76,-189.6"/>
</g>
<!-- 4 -->
<g id="node6" class="node">
<title>4</title>
<path fill="none" stroke="black" d="M177.5,-644.5C177.5,-644.5 334.5,-644.5 334.5,-644.5 340.5,-644.5 346.5,-650.5 346.5,-656.5 346.5,-656.5 346.5,-691.5 346.5,-691.5 346.5,-697.5 340.5,-703.5 334.5,-703.5 334.5,-703.5 177.5,-703.5 177.5,-703.5 171.5,-703.5 165.5,-697.5 165.5,-691.5 165.5,-691.5 165.5,-656.5 165.5,-656.5 165.5,-650.5 171.5,-644.5 177.5,-644.5"/>
<text text-anchor="start" x="177" y="-689.6" font-family="monospace" font-size="8.00">0x40117e</text>
<text text-anchor="start" x="218" y="-689.6" font-family="monospace" font-size="8.00">(0x401163)</text>
<text text-anchor="start" x="268" y="-690.6" font-family="monospace" font-weight="bold" font-size="8.00">firstCall+0x1b</text>
<polyline fill="none" stroke="black" points="165.5,-680.5 346.5,-680.5 "/>
<text text-anchor="start" x="195" y="-667.1" font-family="monospace" font-size="8.00">0x0040117e: </text>
<text text-anchor="start" x="254" y="-667.1" font-family="monospace" font-size="8.00">mov</text>
<text text-anchor="start" x="277" y="-667.1" font-family="monospace" font-size="8.00">eax, 0</text>
<text text-anchor="start" x="195" y="-654.1" font-family="monospace" font-size="8.00">0x00401183: </text>
<text text-anchor="start" x="254" y="-654.1" font-family="monospace" font-size="8.00">call</text>
<text text-anchor="start" x="277" y="-654.1" font-family="monospace" font-size="8.00">0x401149</text>
</g>
<!-- 2&#45;&gt;4 -->
<g id="edge5" class="edge">
<title>2&#45;&gt;4</title>
<path fill="none" stroke="red" d="M270.59,-740.29C268.69,-731.81 266.59,-722.4 264.58,-713.42"/>
<polygon fill="red" stroke="red" points="267.97,-712.53 262.38,-703.54 261.14,-714.06 267.97,-712.53"/>
</g>
<!-- 2&#45;&gt;3 -->
<g id="edge6" class="edge">
<title>2&#45;&gt;3</title>
<path fill="none" stroke="green" d="M322.79,-740.31C335.16,-730.32 347.26,-718.05 355,-704 387.69,-644.72 375,-620.7 375,-553 375,-553 375,-553 375,-344.5 375,-291.92 368.28,-231.85 362.83,-191.8"/>
<polygon fill="green" stroke="green" points="366.29,-191.23 361.44,-181.81 359.35,-192.2 366.29,-191.23"/>
</g>
<!-- 4&#45;&gt;6 -->
<g id="edge8" class="edge">
<title>4&#45;&gt;6</title>
<path fill="none" stroke="black" d="M244.26,-644.26C240.91,-636.04 237.11,-626.74 233.25,-617.29"/>
<polygon fill="black" stroke="black" points="236.41,-615.77 229.39,-607.84 229.93,-618.42 236.41,-615.77"/>
</g>
<!-- 4&#45;&gt;3 -->
<g id="edge9" class="edge">
<title>4&#45;&gt;3</title>
<path fill="none" stroke="gray" stroke-dasharray="1,5" d="M290.39,-644.37C300.63,-634 310.76,-621.49 317,-608 350.22,-536.14 337,-510.17 337,-431 337,-431 337,-431 337,-344.5 337,-291.92 343.72,-231.85 349.17,-191.8"/>
<polygon fill="gray" stroke="gray" points="352.65,-192.2 350.56,-181.81 345.71,-191.23 352.65,-192.2"/>
</g>
<!-- 5 -->
<g id="node9" class="node">
<title>5</title>
<path fill="none" stroke="black" d="M348,-0.5C348,-0.5 482,-0.5 482,-0.5 488,-0.5 494,-6.5 494,-12.5 494,-12.5 494,-60.5 494,-60.5 494,-66.5 488,-72.5 482,-72.5 482,-72.5 348,-72.5 348,-72.5 342,-72.5 336,-66.5 336,-60.5 336,-60.5 336,-12.5 336,-12.5 336,-6.5 342,-0.5 348,-0.5"/>
<text text-anchor="start" x="347" y="-58.6" font-family="monospace" font-size="8.00">0x4011af</text>
<text text-anchor="start" x="388" y="-58.6" font-family="monospace" font-size="8.00">(0x40118b)</text>
<text text-anchor="start" x="438" y="-59.6" font-family="monospace" font-weight="bold" font-size="8.00">main+0x24</text>
<polyline fill="none" stroke="black" points="336,-49.5 494,-49.5 "/>
<text text-anchor="start" x="356" y="-35.6" font-family="monospace" font-size="8.00">0x004011af: </text>
<text text-anchor="start" x="415" y="-35.6" font-family="monospace" font-size="8.00">mov</text>
<text text-anchor="start" x="442" y="-35.6" font-family="monospace" font-size="8.00">eax, 0</text>
<text text-anchor="start" x="356" y="-22.6" font-family="monospace" font-size="8.00">0x004011b4: </text>
<text text-anchor="start" x="415" y="-22.6" font-family="monospace" font-size="8.00">leave</text>
<text text-anchor="start" x="356" y="-9.6" font-family="monospace" font-size="8.00">0x004011b5: </text>
<text text-anchor="start" x="415" y="-9.6" font-family="monospace" font-size="8.00">ret</text>
</g>
<!-- 3&#45;&gt;5 -->
<g id="edge7" class="edge">
<title>3&#45;&gt;5</title>
<path fill="none" stroke="gray" d="M375.32,-109.46C380.26,-100.5 385.63,-90.76 390.79,-81.41"/>
<polygon fill="gray" stroke="gray" points="393.87,-83.06 395.64,-72.61 387.74,-79.68 393.87,-83.06"/>
</g>
<!-- 0 -->
<g id="node8" class="node">
<title>0</title>
<path fill="none" stroke="black" d="M292.5,-997.5C292.5,-997.5 511.5,-997.5 511.5,-997.5 517.5,-997.5 523.5,-1003.5 523.5,-1009.5 523.5,-1009.5 523.5,-1148.5 523.5,-1148.5 523.5,-1154.5 517.5,-1160.5 511.5,-1160.5 511.5,-1160.5 292.5,-1160.5 292.5,-1160.5 286.5,-1160.5 280.5,-1154.5 280.5,-1148.5 280.5,-1148.5 280.5,-1009.5 280.5,-1009.5 280.5,-1003.5 286.5,-997.5 292.5,-997.5"/>
<text text-anchor="start" x="345" y="-1146.6" font-family="monospace" font-size="8.00">0x40118b</text>
<text text-anchor="start" x="386" y="-1146.6" font-family="monospace" font-size="8.00">(0x40118b)</text>
<text text-anchor="start" x="436" y="-1147.6" font-family="monospace" font-weight="bold" font-size="8.00">main</text>
<polyline fill="none" stroke="black" points="280.5,-1137.5 523.5,-1137.5 "/>
<text text-anchor="start" x="292" y="-1124.1" font-family="monospace" font-size="8.00">0x0040118b: </text>
<text text-anchor="start" x="351" y="-1124.1" font-family="monospace" font-size="8.00">endbr64</text>
<text text-anchor="start" x="292" y="-1111.1" font-family="monospace" font-size="8.00">0x0040118f: </text>
<text text-anchor="start" x="351" y="-1111.1" font-family="monospace" font-size="8.00">push</text>
<text text-anchor="start" x="387" y="-1111.1" font-family="monospace" font-size="8.00">rbp</text>
<text text-anchor="start" x="292" y="-1098.1" font-family="monospace" font-size="8.00">0x00401190: </text>
<text text-anchor="start" x="351" y="-1098.1" font-family="monospace" font-size="8.00">mov</text>
<text text-anchor="start" x="387" y="-1098.1" font-family="monospace" font-size="8.00">rbp, rsp</text>
<text text-anchor="start" x="292" y="-1085.1" font-family="monospace" font-size="8.00">0x00401193: </text>
<text text-anchor="start" x="351" y="-1085.1" font-family="monospace" font-size="8.00">sub</text>
<text text-anchor="start" x="387" y="-1085.1" font-family="monospace" font-size="8.00">rsp, 0x20</text>
<text text-anchor="start" x="292" y="-1072.1" font-family="monospace" font-size="8.00">0x00401197: </text>
<text text-anchor="start" x="351" y="-1072.1" font-family="monospace" font-size="8.00">mov</text>
<text text-anchor="start" x="387" y="-1072.1" font-family="monospace" font-size="8.00">dword ptr [rbp &#45; 0x14], edi</text>
<text text-anchor="start" x="292" y="-1059.1" font-family="monospace" font-size="8.00">0x0040119a: </text>
<text text-anchor="start" x="351" y="-1059.1" font-family="monospace" font-size="8.00">mov</text>
<text text-anchor="start" x="387" y="-1059.1" font-family="monospace" font-size="8.00">qword ptr [rbp &#45; 0x20], rsi</text>
<text text-anchor="start" x="292" y="-1046.1" font-family="monospace" font-size="8.00">0x0040119e: </text>
<text text-anchor="start" x="351" y="-1046.1" font-family="monospace" font-size="8.00">mov</text>
<text text-anchor="start" x="387" y="-1046.1" font-family="monospace" font-size="8.00">dword ptr [rbp &#45; 4], 0x3c</text>
<text text-anchor="start" x="292" y="-1033.1" font-family="monospace" font-size="8.00">0x004011a5: </text>
<text text-anchor="start" x="351" y="-1033.1" font-family="monospace" font-size="8.00">mov</text>
<text text-anchor="start" x="387" y="-1033.1" font-family="monospace" font-size="8.00">eax, dword ptr [rbp &#45; 4]</text>
<text text-anchor="start" x="292" y="-1020.1" font-family="monospace" font-size="8.00">0x004011a8: </text>
<text text-anchor="start" x="351" y="-1020.1" font-family="monospace" font-size="8.00">mov</text>
<text text-anchor="start" x="387" y="-1020.1" font-family="monospace" font-size="8.00">edi, eax</text>
<text text-anchor="start" x="292" y="-1007.1" font-family="monospace" font-size="8.00">0x004011aa: </text>
<text text-anchor="start" x="351" y="-1007.1" font-family="monospace" font-size="8.00">call</text>
<text text-anchor="start" x="387" y="-1007.1" font-family="monospace" font-size="8.00">0x401163</text>
</g>
<!-- 0&#45;&gt;1 -->
<g id="edge1" class="edge">
<title>0&#45;&gt;1</title>
<path fill="none" stroke="black" d="M369.48,-997.37C365.77,-988.18 362.01,-978.87 358.37,-969.83"/>
<polygon fill="black" stroke="black" points="361.6,-968.49 354.61,-960.52 355.11,-971.1 361.6,-968.49"/>
</g>
<!-- 0&#45;&gt;5 -->
<g id="edge2" class="edge">
<title>0&#45;&gt;5</title>
<path fill="none" stroke="gray" stroke-dasharray="1,5" d="M443.35,-997.48C448.27,-985.49 452.71,-973.09 456,-961 478.31,-879.12 475,-855.87 475,-771 475,-771 475,-771 475,-253.5 475,-188.67 475.63,-170.47 455,-109 451.91,-99.79 447.62,-90.41 443,-81.6"/>
<polygon fill="gray" stroke="gray" points="445.97,-79.74 438.09,-72.66 439.83,-83.11 445.97,-79.74"/>
</g>
<!-- 8&#45;&gt;9 -->
<g id="edge13" class="edge">
<title>8&#45;&gt;9</title>
<path fill="none" stroke="gray" d="M150,-327.34C157.81,-318.97 167.59,-308.48 177.24,-298.14"/>
<polygon fill="gray" stroke="gray" points="179.95,-300.36 184.21,-290.66 174.83,-295.59 179.95,-300.36"/>
</g>
</g>
</svg>
